<?xml version="1.0" standalone="no"?>
<!DOCTYPE svg PUBLIC "-//W3C//DTD SVG 20010904//EN"
 "http://www.w3.org/TR/2001/REC-SVG-20010904/DTD/svg10.dtd">
<svg version="1.0" xmlns="http://www.w3.org/2000/svg"
 width="776.000000pt" height="776.000000pt" viewBox="0 0 776.000000 776.000000"
 preserveAspectRatio="xMidYMid meet">
<metadata>
Created by potrace 1.14, written by Peter Selinger 2001-2017
</metadata>
<g transform="translate(0.000000,776.000000) scale(0.100000,-0.100000)"
fill="#000000" stroke="none">
<path d="M0 3880 l0 -3820 3880 0 3880 0 0 3820 0 3820 -3880 0 -3880 0 0
-3820z m4605 3621 c131 -13 290 -39 385 -61 51 -12 110 -26 155 -35 17 -4 39
-10 50 -15 11 -4 54 -18 95 -30 244 -73 430 -155 710 -313 60 -33 185 -115
240 -157 19 -15 67 -50 105 -79 236 -177 508 -466 699 -742 36 -53 66 -100 66
-104 0 -3 13 -25 28 -48 16 -23 47 -76 69 -117 21 -41 45 -84 51 -95 21 -37
92 -194 92 -205 0 -6 4 -18 9 -28 40 -75 110 -278 140 -407 7 -27 16 -66 21
-85 22 -87 47 -215 55 -275 24 -196 30 -292 30 -500 0 -295 -23 -512 -76 -700
-6 -22 -13 -52 -16 -68 -3 -15 -9 -30 -14 -33 -5 -3 -9 -13 -9 -22 0 -44 -118
-316 -196 -452 -251 -438 -615 -761 -1019 -905 -145 -51 -377 -78 -482 -56
-29 6 -78 16 -108 23 -31 6 -58 15 -61 20 -3 4 -13 8 -23 8 -39 0 -148 67
-211 130 -60 60 -96 117 -131 210 -18 45 -18 300 -1 358 7 23 17 61 23 85 6
23 20 66 30 95 38 104 61 167 70 187 4 11 24 67 43 125 47 140 82 235 156 420
34 85 68 175 76 200 8 25 19 53 24 62 6 10 10 29 10 42 0 14 4 27 9 30 5 3 11
20 14 38 3 18 11 56 17 83 21 98 23 137 10 190 -26 110 -122 160 -242 127 -44
-12 -169 -73 -188 -92 -3 -3 -30 -24 -61 -47 -104 -79 -348 -340 -465 -498
-25 -33 -50 -67 -57 -75 -16 -20 -119 -160 -137 -186 -97 -139 -140 -204 -140
-210 0 -3 -8 -18 -18 -32 -47 -68 -210 -390 -325 -642 -72 -159 -91 -192 -136
-238 -45 -46 -64 -58 -144 -91 -33 -13 -162 -15 -203 -2 -16 5 -49 15 -74 22
-58 17 -121 61 -145 102 -28 47 -26 171 5 257 21 60 31 83 81 197 11 24 19 45
19 48 0 2 14 34 30 70 17 36 30 68 30 71 0 2 16 39 36 82 50 107 85 183 94
207 4 11 17 40 28 65 23 52 48 117 68 180 8 25 19 54 23 65 5 11 14 40 21 65
7 25 16 56 20 70 69 225 103 471 80 583 -19 90 -46 143 -93 177 -37 27 -48 30
-115 30 -62 0 -84 -5 -140 -32 -79 -38 -186 -122 -266 -209 -95 -105 -296
-382 -296 -409 0 -5 -4 -10 -10 -10 -5 0 -10 -4 -10 -9 0 -5 -17 -38 -38 -72
-21 -35 -44 -76 -51 -91 -8 -16 -18 -28 -23 -28 -4 0 -8 -6 -8 -14 0 -16 -62
-140 -72 -144 -5 -2 -8 -10 -8 -17 0 -8 -9 -29 -19 -47 -55 -95 -76 -135 -140
-263 -63 -127 -88 -180 -126 -270 -7 -16 -22 -51 -34 -77 -11 -27 -30 -69 -42
-95 -49 -112 -66 -140 -109 -183 -25 -25 -56 -50 -70 -56 -14 -6 -37 -17 -52
-24 -37 -18 -223 -18 -268 -1 -89 33 -120 56 -156 113 -19 30 -24 51 -24 105
0 36 5 83 11 102 15 47 57 157 76 201 19 44 22 52 72 180 23 58 41 108 41 113
0 4 8 26 18 50 25 56 53 136 60 167 2 14 8 30 12 35 3 6 12 30 19 55 7 25 17
54 21 65 22 59 50 155 50 173 0 12 4 24 10 27 6 3 10 19 10 35 0 16 4 31 9 34
5 3 11 20 14 38 8 43 25 130 38 193 6 28 13 120 16 205 6 190 -3 225 -74 295
-49 48 -141 49 -247 2 -21 -9 -40 -17 -43 -17 -6 0 -127 -82 -133 -90 -3 -4
-21 -17 -40 -29 -75 -45 -220 -15 -261 55 -11 19 -18 51 -18 93 -1 83 35 152
132 253 67 69 174 158 191 158 4 0 27 14 51 30 24 17 48 30 53 30 6 0 30 10
54 21 62 31 77 36 138 49 30 6 74 15 98 21 87 19 249 9 327 -21 11 -5 36 -14
55 -21 79 -29 156 -104 199 -194 56 -118 81 -236 81 -383 0 -72 3 -94 15 -98
10 -4 82 62 217 198 123 124 241 233 300 276 54 40 100 72 104 72 4 0 15 6 23
14 9 7 45 29 81 47 57 30 96 45 246 90 42 12 311 12 319 -1 3 -5 17 -10 31
-10 14 0 44 -9 66 -20 23 -11 46 -20 50 -20 5 0 35 -18 66 -39 194 -133 295
-319 321 -590 3 -36 11 -66 17 -68 7 -2 43 25 80 61 137 127 397 334 463 367
14 7 33 18 41 25 54 42 273 150 355 175 22 6 49 15 60 20 65 25 226 42 332 34
51 -4 95 -11 99 -16 3 -5 13 -9 24 -9 10 0 38 -10 61 -22 131 -68 206 -174
249 -350 19 -78 21 -107 17 -280 -5 -181 -12 -254 -37 -370 -5 -27 -14 -67
-19 -90 -5 -24 -19 -79 -31 -123 -12 -44 -24 -92 -27 -108 -3 -15 -9 -30 -14
-33 -5 -3 -9 -16 -9 -29 0 -13 -4 -27 -10 -30 -5 -3 -10 -16 -10 -29 0 -12 -4
-26 -8 -31 -4 -6 -14 -28 -21 -50 -22 -70 -76 -211 -110 -287 -12 -26 -21 -51
-21 -56 0 -4 -11 -30 -24 -58 -23 -48 -50 -108 -66 -149 -4 -11 -13 -33 -19
-48 -26 -66 -51 -181 -51 -237 0 -95 44 -160 108 -160 100 1 317 161 438 324
25 33 52 70 61 81 62 74 233 405 233 449 0 8 4 17 9 20 5 3 12 18 15 33 11 46
24 96 36 138 28 102 34 183 34 460 0 160 -3 315 -7 345 -15 106 -56 303 -77
370 -4 14 -13 45 -20 70 -7 25 -16 54 -20 65 -4 11 -13 36 -20 55 -60 176
-178 413 -283 569 -27 40 -55 81 -62 90 -8 9 -44 54 -81 101 -168 212 -359
386 -601 548 -50 34 -109 71 -130 83 -81 46 -308 159 -321 159 -7 0 -20 4 -30
9 -62 31 -221 87 -322 111 -159 40 -196 47 -280 60 -180 27 -283 35 -480 35
-208 0 -278 -4 -425 -26 -132 -19 -315 -57 -385 -79 -14 -4 -45 -13 -70 -20
-94 -27 -226 -73 -237 -83 -3 -4 -12 -7 -20 -7 -7 0 -35 -9 -61 -21 -26 -12
-65 -29 -87 -39 -246 -109 -486 -254 -705 -429 -126 -100 -154 -125 -290 -261
-139 -138 -212 -222 -311 -355 -40 -55 -77 -101 -81 -103 -5 -2 -8 -8 -8 -13
0 -6 -22 -43 -49 -83 -28 -40 -61 -93 -75 -117 -29 -50 -146 -285 -170 -341
-9 -21 -22 -53 -30 -70 -45 -105 -90 -242 -116 -348 -4 -19 -15 -60 -23 -90
-28 -107 -46 -211 -68 -390 -13 -109 -7 -557 10 -660 5 -36 13 -90 16 -120 4
-30 10 -64 15 -75 4 -11 15 -51 25 -90 9 -38 21 -85 26 -102 5 -18 13 -48 18
-65 12 -46 41 -125 63 -175 10 -24 18 -45 18 -48 0 -9 129 -269 156 -315 95
-160 239 -351 368 -487 69 -74 231 -216 321 -282 33 -25 77 -57 97 -73 20 -15
40 -28 43 -28 4 0 19 -8 33 -19 38 -27 111 -68 155 -88 20 -10 37 -21 37 -25
0 -5 4 -8 9 -8 5 0 49 -18 98 -40 85 -40 100 -46 153 -67 14 -6 36 -15 50 -21
22 -9 64 -23 186 -62 17 -6 40 -10 52 -10 11 0 23 -4 26 -9 3 -5 23 -11 43
-14 21 -3 61 -11 88 -17 194 -43 331 -55 645 -55 271 0 421 9 628 36 139 18
207 28 237 34 17 3 55 10 85 16 30 6 71 14 90 19 19 5 62 14 95 21 54 10 146
34 230 58 17 4 50 14 75 21 25 7 54 16 65 20 11 4 38 13 60 19 22 7 49 16 60
21 11 5 40 16 65 24 101 32 225 84 395 166 66 31 140 62 165 69 25 7 59 17 76
22 42 13 180 11 223 -2 80 -26 133 -66 159 -122 6 -15 18 -39 25 -54 7 -14 12
-62 11 -109 0 -121 -39 -191 -162 -296 -17 -16 -34 -28 -36 -28 -3 0 -40 -21
-83 -47 -95 -59 -367 -193 -388 -193 -3 0 -27 -9 -53 -21 -59 -26 -78 -34
-122 -49 -19 -7 -45 -16 -57 -21 -58 -23 -73 -28 -143 -49 -41 -12 -83 -26
-92 -31 -10 -5 -29 -9 -42 -9 -14 0 -27 -4 -30 -9 -3 -5 -20 -11 -38 -14 -18
-3 -51 -10 -73 -17 -22 -6 -58 -15 -80 -20 -22 -5 -60 -14 -85 -20 -25 -6 -67
-16 -95 -21 -27 -5 -72 -14 -100 -20 -163 -32 -344 -57 -605 -81 -150 -14
-844 -18 -950 -5 -165 20 -248 34 -500 88 -25 6 -57 12 -72 16 -16 3 -28 9
-28 14 0 5 -15 9 -33 9 -18 0 -37 4 -42 8 -6 5 -30 14 -55 21 -25 7 -53 17
-62 22 -10 5 -27 9 -37 9 -11 0 -23 5 -26 10 -3 6 -13 10 -21 10 -8 0 -36 9
-62 21 -26 12 -56 25 -67 29 -179 74 -618 324 -633 362 -2 4 -8 8 -14 8 -6 0
-22 10 -37 23 -15 12 -43 33 -61 47 -134 98 -408 367 -510 500 -19 25 -37 47
-40 50 -21 19 -219 308 -233 340 -4 8 -20 38 -37 65 -50 82 -157 305 -189 395
-7 19 -17 44 -22 55 -7 17 -39 116 -99 311 -6 17 -10 40 -10 52 0 11 -4 23 -9
26 -4 3 -11 25 -15 48 -3 24 -10 68 -16 98 -46 252 -55 359 -55 655 0 250 9
392 35 550 6 33 13 84 16 113 4 29 10 55 15 58 5 3 9 20 9 39 0 19 4 44 9 57
5 13 14 48 21 78 6 30 15 66 20 80 4 14 13 45 20 70 7 25 16 54 20 65 4 11 14
40 21 65 7 25 15 50 19 55 3 6 12 28 19 50 7 22 21 59 32 82 10 24 19 47 19
53 0 6 4 18 9 28 5 9 17 35 26 57 32 73 166 338 186 366 10 15 19 29 19 32 0
14 119 197 232 358 189 266 545 630 818 834 41 31 83 62 92 70 55 45 300 201
423 270 120 67 362 183 450 215 11 4 31 12 45 18 14 5 52 20 85 32 33 12 69
26 80 30 22 9 114 38 160 50 110 31 196 53 233 61 111 24 142 30 202 40 125
21 186 29 304 39 66 6 122 13 125 16 9 9 493 -3 606 -15z"/>
</g>
</svg>
